
<svg width="28px" height="28px" viewBox="0 0 28 28" version="1.1" xmlns="http://www.w3.org/2000/svg" xmlns:xlink="http://www.w3.org/1999/xlink">
    <defs>
        <circle id="path-1" cx="13.75" cy="13.75" r="13.75"></circle>
        <linearGradient x1="4.54668888%" y1="62.0564815%" x2="36.948096%" y2="33.6611111%" id="linearGradient-3">
            <stop stop-color="#A52714" stop-opacity="0.6" offset="0%"></stop>
            <stop stop-color="#A52714" stop-opacity="0" offset="66%"></stop>
        </linearGradient>
        <circle id="path-4" cx="13.75" cy="13.75" r="13.75"></circle>
        <circle id="path-6" cx="13.75" cy="13.75" r="13.75"></circle>
        <linearGradient x1="83.8744395%" y1="87.7726931%" x2="36.313086%" y2="66.3546891%" id="linearGradient-8">
            <stop stop-color="#055524" stop-opacity="0.4" offset="0%"></stop>
            <stop stop-color="#055524" stop-opacity="0" offset="33%"></stop>
        </linearGradient>
        <circle id="path-9" cx="13.75" cy="13.75" r="13.75"></circle>
        <circle id="path-11" cx="13.75" cy="13.75" r="13.75"></circle>
        <polygon id="path-13" points="0 25 13.0890625 25 19.1640625 18.925 19.1640625 14.375 8.3375 14.375 0 0.075"></polygon>
        <linearGradient x1="32.6227908%" y1="-4.840625%" x2="48.549279%" y2="45.4140625%" id="linearGradient-15">
            <stop stop-color="#EA6100" stop-opacity="0.3" offset="0%"></stop>
            <stop stop-color="#EA6100" stop-opacity="0" offset="66%"></stop>
        </linearGradient>
        <circle id="path-16" cx="13.75" cy="13.75" r="13.75"></circle>
        <circle id="path-18" cx="13.75" cy="13.75" r="13.75"></circle>
        <polygon id="path-20" points="0.78125 0 6.1953125 9.375 0.1203125 20 14.53125 20 14.53125 0"></polygon>
        <circle id="path-22" cx="13.75" cy="13.75" r="13.75"></circle>
        <radialGradient cx="-4.87755102%" cy="-0.248210024%" fx="-4.87755102%" fy="-0.248210024%" r="401.326969%" gradientTransform="translate(-0.048776,-0.002482),scale(0.267219,1.000000),translate(0.048776,0.002482)" id="radialGradient-24">
            <stop stop-color="#3E2723" stop-opacity="0.2" offset="0%"></stop>
            <stop stop-color="#3E2723" stop-opacity="0" offset="100%"></stop>
        </radialGradient>
        <circle id="path-25" cx="13.75" cy="13.75" r="13.75"></circle>
        <polygon id="path-27" points="0.1515625 0 0.1515625 6.303125 6.30625 16.875 11.71875 7.5 25.46875 7.5 25.46875 0"></polygon>
        <circle id="path-29" cx="13.75" cy="13.75" r="13.75"></circle>
        <radialGradient cx="-0.165938865%" cy="0.103626943%" fx="-0.165938865%" fy="0.103626943%" r="136.321397%" gradientTransform="translate(-0.001659,0.001036),scale(1.000000,0.847520),translate(0.001659,-0.001036)" id="radialGradient-31">
            <stop stop-color="#3E2723" stop-opacity="0.2" offset="0%"></stop>
            <stop stop-color="#3E2723" stop-opacity="0" offset="100%"></stop>
        </radialGradient>
        <circle id="path-32" cx="13.75" cy="13.75" r="13.75"></circle>
        <radialGradient cx="10.3400309%" cy="-12.2148338%" fx="10.3400309%" fy="-12.2148338%" r="226.352396%" gradientTransform="translate(0.103400,-0.122148),scale(1.000000,0.496419),translate(-0.103400,0.122148)" id="radialGradient-34">
            <stop stop-color="#263238" stop-opacity="0.2" offset="0%"></stop>
            <stop stop-color="#263238" stop-opacity="0" offset="100%"></stop>
        </radialGradient>
        <circle id="path-35" cx="13.75" cy="13.75" r="13.75"></circle>
        <circle id="path-37" cx="13.75" cy="13.75" r="13.75"></circle>
        <circle id="path-39" cx="13.75" cy="13.75" r="13.75"></circle>
        <radialGradient cx="14.9352273%" cy="13.6443182%" fx="14.9352273%" fy="13.6443182%" r="100.423864%" id="radialGradient-41">
            <stop stop-color="#FFFFFF" stop-opacity="0.1" offset="0%"></stop>
            <stop stop-color="#FFFFFF" stop-opacity="0" offset="100%"></stop>
        </radialGradient>
    </defs>
    <g id="AcFunCIP" stroke="none" stroke-width="1" fill="none" fill-rule="evenodd">
        <g id="插件" transform="translate(-414.000000, -572.000000)">
            <g id="介绍区域" transform="translate(152.000000, 381.000000)">
                <g id="Chrom下载按钮" transform="translate(236.000000, 179.000000)">
                    <g id="chrome-logo" transform="translate(25.000000, 11.000000)">
                        <g id="Clipped" transform="translate(1.250000, 1.250000)">
                            <mask id="mask-2" fill="white">
                                <use xlink:href="#path-1"></use>
                            </mask>
                            <g id="a"></g>
                            <g id="Group" mask="url(#mask-2)" fill-rule="nonzero">
                                <g transform="translate(2.031250, 0.000000)" id="Shape">
                                    <polygon fill="#DB4437" points="0.1515625 0 0.1515625 16.875 6.30625 16.875 11.71875 7.5 25.46875 7.5 25.46875 0"></polygon>
                                    <polygon fill="url(#linearGradient-3)" points="0.1515625 0 0.1515625 16.875 6.30625 16.875 11.71875 7.5 25.46875 7.5 25.46875 0"></polygon>
                                </g>
                            </g>
                        </g>
                        <g id="Clipped" transform="translate(1.250000, 1.250000)">
                            <mask id="mask-5" fill="white">
                                <use xlink:href="#path-4"></use>
                            </mask>
                            <g id="a"></g>
                            <polygon id="Shape" fill-opacity="0.15" fill="#3E2723" fill-rule="nonzero" mask="url(#mask-5)" points="8.4859375 16.8203125 2.2625 6.146875 2.171875 6.303125 8.35 16.896875"></polygon>
                        </g>
                        <g id="Clipped" transform="translate(1.250000, 1.250000)">
                            <mask id="mask-7" fill="white">
                                <use xlink:href="#path-6"></use>
                            </mask>
                            <g id="a"></g>
                            <g id="Group" mask="url(#mask-7)" fill-rule="nonzero">
                                <g transform="translate(0.000000, 2.500000)" id="Shape">
                                    <polygon fill="#0F9D58" points="0 25 13.0890625 25 19.1640625 18.925 19.1640625 14.375 8.3375 14.375 0 0.075"></polygon>
                                    <polygon fill="url(#linearGradient-8)" points="0 25 13.0890625 25 19.1640625 18.925 19.1640625 14.375 8.3375 14.375 0 0.075"></polygon>
                                </g>
                            </g>
                        </g>
                        <g id="Clipped" transform="translate(1.250000, 1.250000)">
                            <mask id="mask-10" fill="white">
                                <use xlink:href="#path-9"></use>
                            </mask>
                            <g id="a"></g>
                            <polygon id="Shape" fill-opacity="0.15" fill="#263238" fill-rule="nonzero" mask="url(#mask-10)" points="19.0375 17.0828125 18.9078125 17.0078125 12.909375 27.5 13.0890625 27.5 19.0421875 17.0875"></polygon>
                        </g>
                        <g id="Clipped" transform="translate(1.250000, 1.250000)">
                            <mask id="mask-12" fill="white">
                                <use xlink:href="#path-11"></use>
                            </mask>
                            <g id="a"></g>
                            <g mask="url(#mask-12)">
                                <g transform="translate(0.000000, 2.500000)">
                                    <mask id="mask-14" fill="white">
                                        <use xlink:href="#path-13"></use>
                                    </mask>
                                    <g id="e" stroke="none" fill="none"></g>
                                    <g id="Group" stroke="none" stroke-width="1" fill="none" fill-rule="evenodd" mask="url(#mask-14)">
                                        <g transform="translate(12.968750, 5.000000)" fill-rule="nonzero" id="Shape">
                                            <polygon fill="#FFCD40" points="0.78125 0 6.1953125 9.375 0.1203125 20 14.53125 20 14.53125 0"></polygon>
                                            <polygon fill="url(#linearGradient-15)" points="0.78125 0 6.1953125 9.375 0.1203125 20 14.53125 20 14.53125 0"></polygon>
                                        </g>
                                    </g>
                                </g>
                            </g>
                        </g>
                        <g id="Clipped" transform="translate(1.250000, 1.250000)">
                            <mask id="mask-17" fill="white">
                                <use xlink:href="#path-16"></use>
                            </mask>
                            <g id="a"></g>
                            <g id="Group" mask="url(#mask-17)" fill-rule="nonzero">
                                <g transform="translate(12.968750, 7.500000)" id="Shape">
                                    <polygon fill="#FFCD40" points="0.78125 0 6.1953125 9.375 0.1203125 20 14.53125 20 14.53125 0"></polygon>
                                    <polygon fill="url(#linearGradient-15)" points="0.78125 0 6.1953125 9.375 0.1203125 20 14.53125 20 14.53125 0"></polygon>
                                </g>
                            </g>
                        </g>
                        <g id="Clipped" transform="translate(1.250000, 1.250000)">
                            <mask id="mask-19" fill="white">
                                <use xlink:href="#path-18"></use>
                            </mask>
                            <g id="a"></g>
                            <g mask="url(#mask-19)">
                                <g transform="translate(12.968750, 7.500000)">
                                    <mask id="mask-21" fill="white">
                                        <use xlink:href="#path-20"></use>
                                    </mask>
                                    <g id="i" stroke="none" fill="none"></g>
                                    <g id="Group" stroke="none" stroke-width="1" fill="none" fill-rule="evenodd" mask="url(#mask-21)">
                                        <g transform="translate(-10.937500, -7.500000)" fill-rule="nonzero" id="Shape">
                                            <polygon fill="#DB4437" points="0.1515625 0 0.1515625 16.875 6.30625 16.875 11.71875 7.5 25.46875 7.5 25.46875 0"></polygon>
                                            <polygon fill="url(#linearGradient-3)" points="0.1515625 0 0.1515625 16.875 6.30625 16.875 11.71875 7.5 25.46875 7.5 25.46875 0"></polygon>
                                        </g>
                                    </g>
                                </g>
                            </g>
                        </g>
                        <g id="Clipped" transform="translate(1.250000, 1.250000)">
                            <mask id="mask-23" fill="white">
                                <use xlink:href="#path-22"></use>
                            </mask>
                            <g id="a"></g>
                            <polygon id="Shape" fill="url(#radialGradient-24)" fill-rule="nonzero" mask="url(#mask-23)" points="13.75 7.5 13.75 10.7734375 26 7.5"></polygon>
                        </g>
                        <g id="Clipped" transform="translate(1.250000, 1.250000)">
                            <mask id="mask-26" fill="white">
                                <use xlink:href="#path-25"></use>
                            </mask>
                            <g id="a"></g>
                            <g mask="url(#mask-26)">
                                <g transform="translate(2.031250, 0.000000)">
                                    <mask id="mask-28" fill="white">
                                        <use xlink:href="#path-27"></use>
                                    </mask>
                                    <g id="m" stroke="none" fill="none"></g>
                                    <g id="Group" stroke="none" stroke-width="1" fill="none" fill-rule="evenodd" mask="url(#mask-28)">
                                        <g transform="translate(-2.031250, 2.500000)" fill-rule="nonzero" id="Shape">
                                            <polygon fill="#0F9D58" points="0 25 13.0890625 25 19.1640625 18.925 19.1640625 14.375 8.3375 14.375 0 0.075"></polygon>
                                            <polygon fill="url(#linearGradient-8)" points="0 25 13.0890625 25 19.1640625 18.925 19.1640625 14.375 8.3375 14.375 0 0.075"></polygon>
                                        </g>
                                    </g>
                                </g>
                            </g>
                        </g>
                        <g id="Clipped" transform="translate(1.250000, 1.250000)">
                            <mask id="mask-30" fill="white">
                                <use xlink:href="#path-29"></use>
                            </mask>
                            <g id="a"></g>
                            <polygon id="Shape" fill="url(#radialGradient-31)" fill-rule="nonzero" mask="url(#mask-30)" points="2.1828125 6.3203125 11.128125 15.2640625 8.3375 16.875"></polygon>
                        </g>
                        <g id="Clipped" transform="translate(1.250000, 1.250000)">
                            <mask id="mask-33" fill="white">
                                <use xlink:href="#path-32"></use>
                            </mask>
                            <g id="a"></g>
                            <polygon id="Shape" fill="url(#radialGradient-34)" fill-rule="nonzero" mask="url(#mask-33)" points="13.0984375 27.4828125 16.3734375 15.2640625 19.1640625 16.875"></polygon>
                        </g>
                        <g id="Clipped" transform="translate(1.250000, 1.250000)">
                            <mask id="mask-36" fill="white">
                                <use xlink:href="#path-35"></use>
                            </mask>
                            <g id="a"></g>
                            <g id="Group" mask="url(#mask-36)" fill-rule="nonzero">
                                <g transform="translate(7.500000, 7.500000)" id="Oval">
                                    <circle fill="#F1F1F1" cx="6.25" cy="6.25" r="6.25"></circle>
                                    <circle fill="#4285F4" cx="6.25" cy="6.25" r="5"></circle>
                                </g>
                            </g>
                        </g>
                        <g id="Clipped" transform="translate(1.250000, 1.250000)">
                            <mask id="mask-38" fill="white">
                                <use xlink:href="#path-37"></use>
                            </mask>
                            <g id="a"></g>
                            <g id="Group" mask="url(#mask-38)" fill-rule="nonzero">
                                <g transform="translate(0.000000, 2.500000)" id="Shape">
                                    <path d="M13.75,4.84375 C10.2984375,4.84375 7.5,7.6421875 7.5,11.09375 L7.5,11.25 C7.5,7.7984375 10.2984375,5 13.75,5 L27.5,5 L27.5,4.84375 L13.75,4.84375 Z" fill-opacity="0.2" fill="#3E2723"></path>
                                    <path d="M19.15625,14.375 C18.075,16.240625 16.0609375,17.5 13.75,17.5 C11.4375,17.5 9.4234375,16.240625 8.3421875,14.375 L8.3359375,14.375 L0,0.075 L0,0.23125 L8.3375,14.53125 L8.34375,14.53125 C9.425,16.396875 11.4390625,17.65625 13.7515625,17.65625 C16.0625,17.65625 18.0765625,16.3984375 19.1578125,14.53125 L19.165625,14.53125 L19.165625,14.375 L19.15625,14.375 Z" fill-opacity="0.1" fill="#FFFFFF"></path>
                                    <path d="M13.90625,5 C13.8796875,5 13.8546875,5.003125 13.828125,5.0046875 C17.24375,5.046875 20,7.825 20,11.25 C20,14.675 17.24375,17.453125 13.828125,17.4953125 C13.8546875,17.4953125 13.8796875,17.5 13.90625,17.5 C17.3578125,17.5 20.15625,14.7015625 20.15625,11.25 C20.15625,7.7984375 17.3578125,5 13.90625,5 Z" fill="#3E2723" opacity="0.1"></path>
                                    <path d="M19.21875,14.5828125 C19.75,13.6640625 20.0578125,12.6015625 20.0578125,11.4640625 C20.0578125,10.8046875 19.9546875,10.1703125 19.765625,9.575 C19.9140625,10.109375 20,10.6703125 20,11.2515625 C20,12.3890625 19.6921875,13.4515625 19.1609375,14.3703125 L19.1640625,14.3765625 L13.0890625,25.0015625 L13.2703125,25.0015625 L19.221875,14.5890625 L19.21875,14.5828125 Z" fill-opacity="0.2" fill="#FFFFFF"></path>
                                </g>
                            </g>
                        </g>
                        <g id="Clipped" transform="translate(1.250000, 1.250000)">
                            <mask id="mask-40" fill="white">
                                <use xlink:href="#path-39"></use>
                            </mask>
                            <g id="a"></g>
                            <g id="Group" mask="url(#mask-40)" fill-rule="nonzero">
                                <path d="M13.75,0.15625 C21.3171875,0.15625 27.45625,6.2703125 27.4984375,13.828125 C27.4984375,13.8015625 27.5,13.7765625 27.5,13.75 C27.5,6.15625 21.34375,0 13.75,0 C6.15625,0 0,6.15625 0,13.75 C0,13.7765625 0.0015625,13.8015625 0.0015625,13.828125 C0.04375,6.2703125 6.1828125,0.15625 13.75,0.15625 Z" id="Shape" fill-opacity="0.2" fill="#FFFFFF"></path>
                                <path d="M13.75,27.34375 C21.3171875,27.34375 27.45625,21.2296875 27.4984375,13.671875 C27.4984375,13.6984375 27.5,13.7234375 27.5,13.75 C27.5,21.34375 21.34375,27.5 13.75,27.5 C6.15625,27.5 0,21.34375 0,13.75 C0,13.7234375 0.0015625,13.6984375 0.0015625,13.671875 C0.04375,21.2296875 6.1828125,27.34375 13.75,27.34375 Z" id="Shape" fill-opacity="0.15" fill="#3E2723"></path>
                            </g>
                        </g>
                        <circle id="Oval" fill="url(#radialGradient-41)" fill-rule="nonzero" cx="15" cy="15" r="13.75"></circle>
                        <polygon id="Shape" points="0 0 30 0 30 30 0 30"></polygon>
                    </g>
                </g>
            </g>
        </g>
    </g>
</svg>
