<svg width="29px" height="28px" viewBox="0 0 29 28" version="1.1" xmlns="http://www.w3.org/2000/svg" xmlns:xlink="http://www.w3.org/1999/xlink">
    <g id="AcFunCIP" stroke="none" stroke-width="1" fill="none" fill-rule="evenodd">
        <g id="插件" transform="translate(-194.000000, -572.000000)">
            <g id="介绍区域" transform="translate(152.000000, 381.000000)">
                <g id="Firefox下载按钮" transform="translate(16.000000, 179.000000)">
                    <g id="firefox-(1)" transform="translate(26.000000, 12.000000)">
                        <path d="M14.3608451,0.0273098592 C21.8105211,0.0273098592 27.8241127,6.04090141 27.8241127,13.4905775 C27.8241127,20.9402535 21.8104225,26.9538451 14.3608451,26.9538451 C6.91126761,26.9538451 0.897577465,20.9402535 0.897577465,13.4905775 C0.897577465,6.04090141 6.91116901,0.0273098592 14.3608451,0.0273098592 Z" id="Path" fill="#2394BC"></path>
                        <path d="M16.6944085,27.6717887 C23.5157606,26.5049577 28.7215915,20.6709014 28.7215915,13.4904789 L28.6318732,13.6700141 C28.8114085,12.3236479 28.8114085,11.0670986 28.5421549,10.0798028 C28.4524366,10.8875634 28.3626197,11.3363521 28.1830845,11.5158873 C28.1830845,11.426169 28.1830845,10.6183099 27.913831,9.54129577 C27.8241127,8.73353521 27.6445775,7.92567606 27.3753239,7.2076338 C27.4650423,7.56660563 27.4650423,7.83595775 27.4650423,8.10521127 C26.3880282,5.32276056 23.874831,1.8223662 17.5022676,1.91208451 C17.5022676,1.91208451 19.7461127,2.18133803 20.7334085,3.70714085 C20.7334085,3.70714085 19.6563944,3.43788732 18.8485352,3.88667606 C19.835831,4.24564789 20.7334085,4.69443662 21.4514507,5.14322535 L21.541169,5.14322535 C21.7207042,5.23294366 21.9001408,5.41247887 22.0796761,5.50219718 C23.4260423,6.48949296 24.6825915,7.83585915 24.5927746,9.54119718 C24.2338028,9.00269014 23.8747324,8.64361972 23.3362254,8.55390141 C23.9645493,10.9772817 23.9645493,12.9518732 23.5157606,14.4777746 C23.1567887,13.4007606 22.8874366,12.8621549 22.6181831,12.5929014 C22.9771549,15.8240423 22.5284648,18.1577042 21.0923803,19.683507 C21.3616338,18.7859296 21.4513521,17.978169 21.4513521,17.3498451 C19.7460141,19.8629437 17.8611408,21.2093099 15.7070141,21.2990282 C14.8992535,21.2990282 14.0913944,21.2093099 13.2836338,20.9400563 C12.2066197,20.5810845 11.2192254,19.9527606 10.3217465,19.0551831 C11.6681127,19.1449014 13.0143803,18.9654648 14.091493,18.3371408 L15.8865493,17.1703099 C16.1558028,17.0805915 16.335338,17.0805915 16.6045915,17.1703099 C17.0533803,17.0805915 17.2329155,16.9010563 17.0533803,16.4522676 C16.8738451,16.1830141 16.5148732,15.9137606 16.0660845,15.644507 C15.168507,15.1957183 14.1812113,15.2855352 13.1939155,15.9137606 C12.2066197,16.4522676 11.3090423,16.4522676 10.4114648,15.8240423 C9.87295775,15.4650704 9.2446338,14.9264648 8.70612676,14.2084225 L8.52659155,13.8494507 C8.43687324,14.6572113 8.52659155,15.5547887 8.88556338,16.811338 C8.52659155,15.644507 8.43677465,14.6572113 8.52659155,13.8494507 C8.52659155,13.2211268 8.79584507,12.7724366 9.33435211,12.7724366 L9.1548169,12.7724366 L9.42407042,12.7724366 C10.0523944,12.8621549 10.6806197,12.9519718 11.4884789,13.2212254 C11.5781972,12.5031831 11.4884789,11.6954225 10.9499718,10.8875634 C11.6680141,10.1695211 12.296338,9.72073239 12.8348451,9.45147887 C13.1040986,9.36176056 13.1938169,9.09250704 13.2836338,8.82315493 C13.463169,8.4641831 13.3733521,8.28464789 13.1939155,8.10511268 C12.6554085,8.10511268 12.2066197,8.10511268 11.6681127,8.01539437 C11.4885775,7.92567606 11.2193239,7.74614085 10.8603521,7.47688732 L10.0525915,6.66912676 L9.78333803,6.48959155 L9.69361972,6.39987324 L9.78333803,6.31015493 C9.87305634,5.68183099 10.0525915,5.14332394 10.3218451,4.69453521 L10.4115634,4.6048169 C10.6808169,4.15602817 11.2193239,3.70723944 11.9373662,3.16873239 C10.5012817,3.34826761 9.24473239,3.97649296 8.07790141,5.05360563 C7.18032394,4.78435211 6.01349296,4.87407042 4.75694366,5.41257746 L4.57740845,5.50229577 L4.75694366,5.41257746 C3.9491831,5.05360563 3.41057746,3.97649296 3.14132394,2.18143662 C2.06440845,3.16873239 1.61561972,5.05360563 1.61561972,7.65652113 L1.3463662,8.10530986 L1.25664789,8.19502817 C1.07711268,8.46428169 0.897676056,8.82335211 0.628323944,9.27204225 C0.269352113,9.99008451 0.0898169014,10.5285915 0.0898169014,11.0670986 L0.0898169014,11.2466338 C0.0898169014,11.3363521 0.0898169014,11.5158873 0.0898169014,11.6056056 L0.897577465,10.9772817 C0.628323944,11.7850423 0.359070423,12.5929014 0.269253521,13.400662 L0.269253521,13.7596338 L0,13.4905775 C0,16.5422817 0.987295775,19.4144507 2.60291549,21.7480141 L2.6926338,21.8377324 L2.78235211,21.9274507 C3.9491831,23.5430704 5.47498592,24.889338 7.27014085,25.9664507 C8.52669014,26.684493 9.87305634,27.223 11.3091408,27.5820704 L11.5783944,27.6717887 C11.8476479,27.761507 12.2067183,27.761507 12.4759718,27.8513239 C12.7452254,27.8513239 12.9247606,27.9410423 13.1940141,27.9410423 L13.4632676,27.9410423 L13.9120563,27.9410423 L14.3608451,27.9410423 L14.7198169,27.9410423 L15.3481408,27.9410423 C15.7071127,27.9410423 16.0661831,27.8513239 16.4251549,27.8513239 C16.4251549,27.6717887 16.6944085,27.6717887 16.6944085,27.6717887 Z M25.7642546,10.1700293 L25.7642546,10.2680293 L25.7642546,10.1700293 Z" id="Shape" fill="#EC8840" fill-rule="nonzero"></path>
                    </g>
                </g>
            </g>
        </g>
    </g>
</svg>
