<svg width="13px" height="12px" viewBox="0 0 13 12" version="1.1" xmlns="http://www.w3.org/2000/svg" xmlns:xlink="http://www.w3.org/1999/xlink">
    <g id="AcFunCIP" stroke="none" stroke-width="1" fill="none" fill-rule="evenodd">
        <g id="评论查询/按文章排序" transform="translate(-401.000000, -384.000000)" fill="#FD4C5B">
            <g id="查询项/收缩" transform="translate(385.000000, 332.000000)">
                <g id="link" transform="translate(16.000000, 52.000000)">
                    <path d="M6.7902439,5.14323725 C6.64922395,5.28425721 6.64922395,5.51042129 6.7902439,5.65144124 C7.372949,6.23414634 7.372949,7.18137472 6.7902439,7.76407982 L3.73037694,10.8239468 C3.14767184,11.4066519 2.20044346,11.4066519 1.61773836,10.8239468 L1.15742794,10.3636364 C0.574722838,9.78093126 0.574722838,8.83370288 1.15742794,8.25099778 L4.2172949,5.19113082 C4.35831486,5.05011086 4.35831486,4.82394678 4.2172949,4.68292683 C4.07627494,4.54190687 3.85011086,4.54190687 3.70909091,4.68292683 L0.649223947,7.74279379 C0.231485588,8.16053215 0,8.71662971 0,9.30731707 C0,9.89800443 0.228824834,10.454102 0.649223947,10.8718404 L1.10953437,11.3321508 C1.5405765,11.7631929 2.10731707,11.978714 2.67405765,11.978714 C3.24079823,11.978714 3.8075388,11.7631929 4.23858093,11.3321508 L7.29844789,8.27228381 C8.16053215,7.41019956 8.16053215,6.00532151 7.29844789,5.14323725 C7.16008869,5.00221729 6.93126386,5.00221729 6.7902439,5.14323725 Z" id="Path"></path>
                    <path d="M12.1995565,1.12283814 L11.7392461,0.662527716 C10.8771619,-0.199556541 9.47228381,-0.199556541 8.61019956,0.662527716 L5.55033259,3.72239468 C4.68824834,4.58447894 4.68824834,5.98935698 5.55033259,6.85144124 C5.69135255,6.9924612 5.91751663,6.9924612 6.05853659,6.85144124 C6.19955654,6.71042129 6.19955654,6.48425721 6.05853659,6.34323725 C5.47583149,5.76053215 5.47583149,4.81330377 6.05853659,4.23059867 L9.11840355,1.17073171 C9.70110865,0.588026608 10.648337,0.588026608 11.2310421,1.17073171 L11.6913525,1.63104213 C12.2740576,2.21374723 12.2740576,3.16097561 11.6913525,3.74368071 L8.63148559,6.80354767 C8.49046563,6.94456763 8.49046563,7.17073171 8.63148559,7.31175166 C8.70066519,7.38093126 8.79379157,7.41818182 8.88425721,7.41818182 C8.97472284,7.41818182 9.06784922,7.38359202 9.13702882,7.31175166 L12.1968958,4.2518847 C12.6146341,3.83414634 12.8461197,3.27804878 12.8461197,2.68736142 C12.8461197,2.09667406 12.6172949,1.5405765 12.1995565,1.12283814 Z" id="Path"></path>
                </g>
            </g>
        </g>
    </g>
</svg>
